<svg width="50" height="50" viewBox="0 0 50 50" fill="none" xmlns="http://www.w3.org/2000/svg">
<path d="M25 49.3599C18.5495 49.3599 12.3633 46.7975 7.80208 42.2363C3.24091 37.6751 0.678467 31.4888 0.678467 25.0384V25.0384C0.678467 18.5879 3.24091 12.4016 7.80208 7.84042C12.3633 3.27924 18.5495 0.716797 25 0.716797V0.716797C28.194 0.716797 31.3566 1.34589 34.3075 2.56816C37.2583 3.79044 39.9395 5.58195 42.198 7.84042C44.4564 10.0989 46.2479 12.7801 47.4702 15.7309C48.6925 18.6817 49.3216 21.8444 49.3216 25.0384V25.0384C49.3216 28.2323 48.6925 31.395 47.4702 34.3458C46.2479 37.2966 44.4564 39.9778 42.198 42.2363C39.9395 44.4948 37.2583 46.2863 34.3075 47.5085C31.3566 48.7308 28.194 49.3599 25 49.3599Z" stroke="black" stroke-miterlimit="10"/>
<path d="M35.6632 14.5032H14.6699C14.3282 14.5031 13.99 14.5714 13.6751 14.704C13.3602 14.8367 13.0751 15.031 12.8365 15.2756C12.5979 15.5201 12.4107 15.81 12.2859 16.128C12.1611 16.446 12.1011 16.7858 12.1097 17.1274V32.8724C12.1097 33.217 12.1776 33.5582 12.3094 33.8766C12.4413 34.195 12.6346 34.4843 12.8783 34.728C13.122 34.9716 13.4113 35.1649 13.7296 35.2968C14.048 35.4287 14.3892 35.4966 14.7339 35.4966H35.7272C36.0718 35.4966 36.413 35.4287 36.7314 35.2968C37.0498 35.1649 37.3391 34.9716 37.5828 34.728C37.8264 34.4843 38.0197 34.195 38.1516 33.8766C38.2835 33.5582 38.3514 33.217 38.3514 32.8724V17.1274C38.3515 16.7773 38.2815 16.4308 38.1457 16.1082C38.0098 15.7855 37.8108 15.4934 37.5603 15.2488C37.3098 15.0043 37.0129 14.8123 36.6871 14.6843C36.3613 14.5563 36.0132 14.4947 35.6632 14.5032ZM35.6632 19.7516L25.1665 26.3184L14.6699 19.7516V17.1914L25.1665 23.7582L35.6632 17.1914V19.7516Z" fill="black"/>
</svg>
